<svg width="20" height="20" viewBox="0 0 20 20" fill="none" xmlns="http://www.w3.org/2000/svg">
<path d="M4.16665 13.3333C4.62688 13.3333 4.99998 13.7064 4.99998 14.1667V15H15V14.1667C15 13.7064 15.3731 13.3333 15.8333 13.3333C16.2936 13.3333 16.6666 13.7064 16.6666 14.1667V15.8333C16.6666 16.2936 16.2936 16.6667 15.8333 16.6667H4.16665C3.70641 16.6667 3.33331 16.2936 3.33331 15.8333L3.33331 14.1667C3.33331 13.7064 3.70641 13.3333 4.16665 13.3333Z" fill="#7F1922"/>
<path d="M10.5892 13.0893C10.2638 13.4147 9.73617 13.4147 9.41073 13.0893L5.24406 8.9226C4.91862 8.59716 4.91862 8.06952 5.24406 7.74409C5.5695 7.41865 6.09714 7.41865 6.42257 7.74409L9.16665 10.4882L9.16665 3.33333C9.16665 2.8731 9.53974 2.5 9.99998 2.5C10.4602 2.5 10.8333 2.87309 10.8333 3.33333L10.8333 10.4882L13.5774 7.74409C13.9028 7.41865 14.4305 7.41865 14.7559 7.74409C15.0813 8.06952 15.0813 8.59716 14.7559 8.9226L10.5892 13.0893Z" fill="#7F1922"/>
</svg>
