<svg width="32" height="32" viewBox="0 0 32 32" fill="none" xmlns="http://www.w3.org/2000/svg">
<circle cx="16" cy="16" r="16" fill="white"/>
<path fill-rule="evenodd" clip-rule="evenodd" d="M16 30.3999C23.9528 30.3999 30.3999 23.9528 30.3999 16C30.3999 8.04718 23.9528 1.6 16 1.6C8.04718 1.6 1.6 8.04718 1.6 16C1.6 23.9528 8.04718 30.3999 16 30.3999ZM16 31.9999C24.8368 31.9999 31.9999 24.8368 31.9999 16C31.9999 7.16319 24.8368 0 16 0C7.16319 0 0 7.16319 0 16C0 24.8368 7.16319 31.9999 16 31.9999Z" fill="#75787B"/>
<path d="M6.39996 25.304C6.39996 24.4776 7.01756 23.7792 7.83996 23.688C14.0119 23.0048 18.0159 23.0664 24.1743 23.7032C24.4819 23.7355 24.7733 23.8567 25.0131 24.0519C25.2529 24.2471 25.4307 24.5079 25.5247 24.8025C25.6187 25.0971 25.6249 25.4127 25.5425 25.7107C25.4601 26.0088 25.2927 26.2763 25.0607 26.4808C17.7927 32.816 13.6392 32.7288 6.91196 26.4872C6.58396 26.1832 6.39996 25.7512 6.39996 25.3048V25.304Z" fill="#75787B"/>
<path fill-rule="evenodd" clip-rule="evenodd" d="M24.0919 24.4984C17.9824 23.8664 14.036 23.8072 7.92718 24.4832C7.72609 24.5066 7.54071 24.6034 7.40654 24.755C7.27236 24.9066 7.19881 25.1023 7.19998 25.3048C7.19998 25.5336 7.29518 25.7504 7.45598 25.9008C10.7904 28.9936 13.3168 30.3912 15.7864 30.4C18.2648 30.4088 20.9272 29.0224 24.5351 25.8784C24.6498 25.7764 24.7323 25.6432 24.7727 25.4952C24.813 25.3472 24.8095 25.1906 24.7626 25.0445C24.7157 24.8984 24.6273 24.7691 24.5082 24.6723C24.3892 24.5755 24.2445 24.5153 24.0919 24.4992V24.4984ZM7.75198 22.8928C13.9888 22.2024 18.0512 22.2648 24.2575 22.9072C24.7202 22.9555 25.1587 23.1376 25.5194 23.4313C25.8802 23.725 26.1474 24.1175 26.2885 24.5607C26.4296 25.0039 26.4384 25.4787 26.3138 25.9269C26.1893 26.375 25.9367 26.7771 25.5871 27.084C21.9272 30.2744 18.8792 32.012 15.7816 32C12.6752 31.9888 9.76157 30.2216 6.36878 27.0736C6.12586 26.8473 5.93221 26.5734 5.79993 26.2689C5.66765 25.9644 5.59959 25.636 5.59998 25.304C5.59881 24.7075 5.81774 24.1316 6.21483 23.6866C6.61192 23.2415 7.15925 22.9586 7.75198 22.892V22.8928Z" fill="#75787B"/>
<path d="M22.4 12.8C22.4 14.4974 21.7257 16.1253 20.5254 17.3255C19.3252 18.5257 17.6973 19.2 16 19.2C14.3026 19.2 12.6747 18.5257 11.4745 17.3255C10.2743 16.1253 9.59998 14.4974 9.59998 12.8C9.59998 11.1026 10.2743 9.47477 11.4745 8.27454C12.6747 7.07431 14.3026 6.40002 16 6.40002C17.6973 6.40002 19.3252 7.07431 20.5254 8.27454C21.7257 9.47477 22.4 11.1026 22.4 12.8Z" fill="#75787B"/>
<path fill-rule="evenodd" clip-rule="evenodd" d="M16 17.6C17.273 17.6 18.4939 17.0943 19.3941 16.1941C20.2942 15.2939 20.8 14.073 20.8 12.8C20.8 11.527 20.2942 10.3061 19.3941 9.40591C18.4939 8.50573 17.273 8.00002 16 8.00002C14.7269 8.00002 13.506 8.50573 12.6059 9.40591C11.7057 10.3061 11.2 11.527 11.2 12.8C11.2 14.073 11.7057 15.2939 12.6059 16.1941C13.506 17.0943 14.7269 17.6 16 17.6ZM16 19.2C17.6973 19.2 19.3252 18.5257 20.5254 17.3255C21.7257 16.1253 22.4 14.4974 22.4 12.8C22.4 11.1026 21.7257 9.47477 20.5254 8.27454C19.3252 7.07431 17.6973 6.40002 16 6.40002C14.3026 6.40002 12.6747 7.07431 11.4745 8.27454C10.2743 9.47477 9.59998 11.1026 9.59998 12.8C9.59998 14.4974 10.2743 16.1253 11.4745 17.3255C12.6747 18.5257 14.3026 19.2 16 19.2Z" fill="#75787B"/>
</svg>
